<svg xmlns="http://www.w3.org/2000/svg" viewBox="0 0 194.559 194.559" fill="currentColor" class="BIIPvCRqoO6eeiLt4mCWl"><path d="M58.026 0h-51.2a3.413 3.413 0 00-3.413 3.413v51.2a3.413 3.413 0 003.413 3.413h51.2a3.413 3.413 0 003.413-3.413v-51.2A3.413 3.413 0 0058.026 0zm-3.414 51.2H10.239V6.827h44.373V51.2z"></path><path d="M42.304 13.93a3.4 3.4 0 00-4.482 1.794L29.567 34.98l-3.261-3.26a3.412 3.412 0 10-4.826 4.826l6.827 6.827a3.411 3.411 0 005.55-1.07l10.24-23.893a3.414 3.414 0 00-1.793-4.48zM58.026 68.267h-51.2a3.413 3.413 0 00-3.413 3.413v51.2a3.413 3.413 0 003.413 3.413h51.2a3.414 3.414 0 003.413-3.413v-51.2a3.413 3.413 0 00-3.413-3.413zm-3.414 51.2H10.239V75.093h44.373v44.374z"></path><path d="M42.304 82.197a3.397 3.397 0 00-4.482 1.794l-8.255 19.256-3.261-3.26a3.412 3.412 0 10-4.826 4.826l6.827 6.827a3.411 3.411 0 005.55-1.07l10.24-23.893a3.414 3.414 0 00-1.793-4.48zM58.026 136.533h-51.2a3.413 3.413 0 00-3.413 3.413v51.2a3.413 3.413 0 003.413 3.413h51.2a3.413 3.413 0 003.413-3.413v-51.2a3.414 3.414 0 00-3.413-3.413zm-3.414 51.2H10.239V143.36h44.373v44.373zM180.906 3.413h-102.4a3.413 3.413 0 100 6.826h102.4a3.413 3.413 0 100-6.826zM146.772 27.307H78.506a3.413 3.413 0 100 6.826h68.267a3.413 3.413 0 10-.001-6.826zM143.359 71.68H78.506a3.413 3.413 0 100 6.826h64.853a3.413 3.413 0 100-6.826zM187.733 95.573H78.506a3.413 3.413 0 100 6.826h109.227a3.413 3.413 0 100-6.826zM119.466 139.947h-13.653a3.413 3.413 0 100 6.826h13.653a3.413 3.413 0 100-6.826zM92.16 139.947H78.506a3.413 3.413 0 100 6.826H92.16a3.413 3.413 0 100-6.826zM174.079 139.947h-13.653a3.413 3.413 0 100 6.826h13.653a3.413 3.413 0 100-6.826zM146.772 139.947h-13.653a3.413 3.413 0 100 6.826h13.653a3.413 3.413 0 100-6.826zM92.16 163.84H78.506a3.413 3.413 0 100 6.826H92.16a3.413 3.413 0 100-6.826zM119.466 163.84h-13.653a3.413 3.413 0 100 6.826h13.653a3.413 3.413 0 100-6.826zM139.947 163.84h-6.827a3.413 3.413 0 100 6.826h6.827a3.413 3.413 0 100-6.826z"></path></svg>